# xmcd
#
# Track frame offsets:
#       150
#       21060
#       35567
#       52552
#
# Disc length: 1049 seconds
#
# Revision: 0
# Processed by: cddbd v1.4PL0 Copyright (c) Steve Scherf et al.
# Submitted via: CD-DA_X-Tractor v0.23
#
DISCID=22041704
DTITLE=Conway Savage - Conway Savage
DYEAR=1992
DGENRE=blues
TTITLE0=Fair And Tender Ladies
TTITLE1=Too Dark To See
TTITLE2=Say It Aint So
TTITLE3=When The Moon Is Gone
EXTD=
EXTT0=
EXTT1=
EXTT2=
EXTT3=
PLAYORDER=
